# xmcd CD database file
#
# Track frame offsets:
#	150
#	15761
#	37268
#	51393
#	64795
#	78734
#	92257
#	106600
#	119729
#	133303
#	149193
#	161925
#	179164
#	191417
#
# Disc length: 2726 seconds
#
# Revision: 1
# Processed by: cddbd v1.5.2PL0 Copyright (c) Steve Scherf et al.
# Submitted via: CDex 1.51
#
DISCID=d20aa40e
DTITLE=Peter Green Splinter Group - Peter Plays The Blues
DYEAR=2002
DGENRE=Blues
TTITLE0=Phonograph Blues
TTITLE1=Love In Vain Blues
TTITLE2=Come On In My Kitchen
TTITLE3=Ramblin' On My Mind
TTITLE4=Walkin' Blues
TTITLE5=Little Queen Of Spades
TTITLE6=Malted Milk
TTITLE7=Stones In My Passway
TTITLE8=Me and The Devil Blues
TTITLE9=I'm A Steady Rollin' Man
TTITLE10=Dead Shrimp Blues
TTITLE11=They're Red Hot
TTITLE12=Preachin' Blues
TTITLE13=Cross Road Blues
EXTD=YEAR: 2002
EXTT0=
EXTT1=
EXTT2=
EXTT3=
EXTT4=
EXTT5=
EXTT6=
EXTT7=
EXTT8=
EXTT9=
EXTT10=
EXTT11=
EXTT12=
EXTT13=
PLAYORDER=
